<mxfile host="app.diagrams.net" agent="Mozilla/5.0 (Windows NT 10.0; Win64; x64) AppleWebKit/537.36 (KHTML, like Gecko) Chrome/127.0.0.0 Safari/537.36" version="24.7.7">
  <diagram id="R2lEEEUBdFMjLlhIrx00" name="Page-1">
    <mxGraphModel dx="2282" dy="274" grid="1" gridSize="10" guides="1" tooltips="1" connect="1" arrows="1" fold="1" page="1" pageScale="1" pageWidth="850" pageHeight="1100" math="0" shadow="0" extFonts="Permanent Marker^https://fonts.googleapis.com/css?family=Permanent+Marker">
      <root>
        <mxCell id="0" />
        <mxCell id="1" parent="0" />
        <mxCell id="C-vyLk0tnHw3VtMMgP7b-2" value="salas" style="shape=table;startSize=30;container=1;collapsible=1;childLayout=tableLayout;fixedRows=1;rowLines=0;fontStyle=1;align=center;resizeLast=1;fillColor=#B9E0A5;" parent="1" vertex="1">
          <mxGeometry x="-680" y="340" width="280" height="120" as="geometry" />
        </mxCell>
        <mxCell id="C-vyLk0tnHw3VtMMgP7b-3" value="" style="shape=partialRectangle;collapsible=0;dropTarget=0;pointerEvents=0;fillColor=#B9E0A5;points=[[0,0.5],[1,0.5]];portConstraint=eastwest;top=0;left=0;right=0;bottom=1;" parent="C-vyLk0tnHw3VtMMgP7b-2" vertex="1">
          <mxGeometry y="30" width="280" height="30" as="geometry" />
        </mxCell>
        <mxCell id="C-vyLk0tnHw3VtMMgP7b-4" value="PK" style="shape=partialRectangle;overflow=hidden;connectable=0;fillColor=#B9E0A5;top=0;left=0;bottom=0;right=0;fontStyle=1;" parent="C-vyLk0tnHw3VtMMgP7b-3" vertex="1">
          <mxGeometry width="30" height="30" as="geometry">
            <mxRectangle width="30" height="30" as="alternateBounds" />
          </mxGeometry>
        </mxCell>
        <mxCell id="C-vyLk0tnHw3VtMMgP7b-5" value="id_sala: integer SERIAL NOT NULL" style="shape=partialRectangle;overflow=hidden;connectable=0;fillColor=#B9E0A5;top=0;left=0;bottom=0;right=0;align=left;spacingLeft=6;fontStyle=5;" parent="C-vyLk0tnHw3VtMMgP7b-3" vertex="1">
          <mxGeometry x="30" width="250" height="30" as="geometry">
            <mxRectangle width="250" height="30" as="alternateBounds" />
          </mxGeometry>
        </mxCell>
        <mxCell id="C-vyLk0tnHw3VtMMgP7b-6" value="" style="shape=partialRectangle;collapsible=0;dropTarget=0;pointerEvents=0;fillColor=#B9E0A5;points=[[0,0.5],[1,0.5]];portConstraint=eastwest;top=0;left=0;right=0;bottom=0;" parent="C-vyLk0tnHw3VtMMgP7b-2" vertex="1">
          <mxGeometry y="60" width="280" height="30" as="geometry" />
        </mxCell>
        <mxCell id="C-vyLk0tnHw3VtMMgP7b-7" value="" style="shape=partialRectangle;overflow=hidden;connectable=0;fillColor=#B9E0A5;top=0;left=0;bottom=0;right=0;" parent="C-vyLk0tnHw3VtMMgP7b-6" vertex="1">
          <mxGeometry width="30" height="30" as="geometry">
            <mxRectangle width="30" height="30" as="alternateBounds" />
          </mxGeometry>
        </mxCell>
        <mxCell id="C-vyLk0tnHw3VtMMgP7b-8" value="codigo: varchar(16) NOT NULL" style="shape=partialRectangle;overflow=hidden;connectable=0;fillColor=#B9E0A5;top=0;left=0;bottom=0;right=0;align=left;spacingLeft=6;" parent="C-vyLk0tnHw3VtMMgP7b-6" vertex="1">
          <mxGeometry x="30" width="250" height="30" as="geometry">
            <mxRectangle width="250" height="30" as="alternateBounds" />
          </mxGeometry>
        </mxCell>
        <mxCell id="YuTx6DVj9ohWgZIfJrAf-3" value="" style="shape=partialRectangle;collapsible=0;dropTarget=0;pointerEvents=0;fillColor=#B9E0A5;points=[[0,0.5],[1,0.5]];portConstraint=eastwest;top=0;left=0;right=0;bottom=0;" parent="C-vyLk0tnHw3VtMMgP7b-2" vertex="1">
          <mxGeometry y="90" width="280" height="30" as="geometry" />
        </mxCell>
        <mxCell id="YuTx6DVj9ohWgZIfJrAf-4" value="" style="shape=partialRectangle;overflow=hidden;connectable=0;fillColor=#B9E0A5;top=0;left=0;bottom=0;right=0;" parent="YuTx6DVj9ohWgZIfJrAf-3" vertex="1">
          <mxGeometry width="30" height="30" as="geometry">
            <mxRectangle width="30" height="30" as="alternateBounds" />
          </mxGeometry>
        </mxCell>
        <mxCell id="YuTx6DVj9ohWgZIfJrAf-5" value="senha: varchar(32) NOT NULL" style="shape=partialRectangle;overflow=hidden;connectable=0;fillColor=#B9E0A5;top=0;left=0;bottom=0;right=0;align=left;spacingLeft=6;" parent="YuTx6DVj9ohWgZIfJrAf-3" vertex="1">
          <mxGeometry x="30" width="250" height="30" as="geometry">
            <mxRectangle width="250" height="30" as="alternateBounds" />
          </mxGeometry>
        </mxCell>
        <mxCell id="C-vyLk0tnHw3VtMMgP7b-13" value="filmes" style="shape=table;startSize=30;container=1;collapsible=1;childLayout=tableLayout;fixedRows=1;rowLines=0;fontStyle=1;align=center;resizeLast=1;fillColor=#B9E0A5;" parent="1" vertex="1">
          <mxGeometry x="-680" y="480" width="280" height="210" as="geometry" />
        </mxCell>
        <mxCell id="C-vyLk0tnHw3VtMMgP7b-14" value="" style="shape=partialRectangle;collapsible=0;dropTarget=0;pointerEvents=0;fillColor=#B9E0A5;points=[[0,0.5],[1,0.5]];portConstraint=eastwest;top=0;left=0;right=0;bottom=1;" parent="C-vyLk0tnHw3VtMMgP7b-13" vertex="1">
          <mxGeometry y="30" width="280" height="30" as="geometry" />
        </mxCell>
        <mxCell id="C-vyLk0tnHw3VtMMgP7b-15" value="PK" style="shape=partialRectangle;overflow=hidden;connectable=0;fillColor=#B9E0A5;top=0;left=0;bottom=0;right=0;fontStyle=1;" parent="C-vyLk0tnHw3VtMMgP7b-14" vertex="1">
          <mxGeometry width="30" height="30" as="geometry">
            <mxRectangle width="30" height="30" as="alternateBounds" />
          </mxGeometry>
        </mxCell>
        <mxCell id="C-vyLk0tnHw3VtMMgP7b-16" value="id_filme: integer SERIAL NOT NULL" style="shape=partialRectangle;overflow=hidden;connectable=0;fillColor=#B9E0A5;top=0;left=0;bottom=0;right=0;align=left;spacingLeft=6;fontStyle=5;" parent="C-vyLk0tnHw3VtMMgP7b-14" vertex="1">
          <mxGeometry x="30" width="250" height="30" as="geometry">
            <mxRectangle width="250" height="30" as="alternateBounds" />
          </mxGeometry>
        </mxCell>
        <mxCell id="C-vyLk0tnHw3VtMMgP7b-17" value="" style="shape=partialRectangle;collapsible=0;dropTarget=0;pointerEvents=0;fillColor=#B9E0A5;points=[[0,0.5],[1,0.5]];portConstraint=eastwest;top=0;left=0;right=0;bottom=0;" parent="C-vyLk0tnHw3VtMMgP7b-13" vertex="1">
          <mxGeometry y="60" width="280" height="30" as="geometry" />
        </mxCell>
        <mxCell id="C-vyLk0tnHw3VtMMgP7b-18" value="" style="shape=partialRectangle;overflow=hidden;connectable=0;fillColor=#B9E0A5;top=0;left=0;bottom=0;right=0;" parent="C-vyLk0tnHw3VtMMgP7b-17" vertex="1">
          <mxGeometry width="30" height="30" as="geometry">
            <mxRectangle width="30" height="30" as="alternateBounds" />
          </mxGeometry>
        </mxCell>
        <mxCell id="C-vyLk0tnHw3VtMMgP7b-19" value="nome: varchar(255) NOT NULL" style="shape=partialRectangle;overflow=hidden;connectable=0;fillColor=#B9E0A5;top=0;left=0;bottom=0;right=0;align=left;spacingLeft=6;" parent="C-vyLk0tnHw3VtMMgP7b-17" vertex="1">
          <mxGeometry x="30" width="250" height="30" as="geometry">
            <mxRectangle width="250" height="30" as="alternateBounds" />
          </mxGeometry>
        </mxCell>
        <mxCell id="C-vyLk0tnHw3VtMMgP7b-20" value="" style="shape=partialRectangle;collapsible=0;dropTarget=0;pointerEvents=0;fillColor=#B9E0A5;points=[[0,0.5],[1,0.5]];portConstraint=eastwest;top=0;left=0;right=0;bottom=0;" parent="C-vyLk0tnHw3VtMMgP7b-13" vertex="1">
          <mxGeometry y="90" width="280" height="30" as="geometry" />
        </mxCell>
        <mxCell id="C-vyLk0tnHw3VtMMgP7b-21" value="" style="shape=partialRectangle;overflow=hidden;connectable=0;fillColor=#B9E0A5;top=0;left=0;bottom=0;right=0;" parent="C-vyLk0tnHw3VtMMgP7b-20" vertex="1">
          <mxGeometry width="30" height="30" as="geometry">
            <mxRectangle width="30" height="30" as="alternateBounds" />
          </mxGeometry>
        </mxCell>
        <mxCell id="C-vyLk0tnHw3VtMMgP7b-22" value="sinopse: text NOT NULL" style="shape=partialRectangle;overflow=hidden;connectable=0;fillColor=#B9E0A5;top=0;left=0;bottom=0;right=0;align=left;spacingLeft=6;" parent="C-vyLk0tnHw3VtMMgP7b-20" vertex="1">
          <mxGeometry x="30" width="250" height="30" as="geometry">
            <mxRectangle width="250" height="30" as="alternateBounds" />
          </mxGeometry>
        </mxCell>
        <mxCell id="4jYssweteFKAgpMdDyCE-33" value="" style="shape=partialRectangle;collapsible=0;dropTarget=0;pointerEvents=0;fillColor=#B9E0A5;points=[[0,0.5],[1,0.5]];portConstraint=eastwest;top=0;left=0;right=0;bottom=0;" parent="C-vyLk0tnHw3VtMMgP7b-13" vertex="1">
          <mxGeometry y="120" width="280" height="30" as="geometry" />
        </mxCell>
        <mxCell id="4jYssweteFKAgpMdDyCE-34" value="" style="shape=partialRectangle;overflow=hidden;connectable=0;fillColor=#B9E0A5;top=0;left=0;bottom=0;right=0;" parent="4jYssweteFKAgpMdDyCE-33" vertex="1">
          <mxGeometry width="30" height="30" as="geometry">
            <mxRectangle width="30" height="30" as="alternateBounds" />
          </mxGeometry>
        </mxCell>
        <mxCell id="4jYssweteFKAgpMdDyCE-35" value="lancamento: date NOT NULL" style="shape=partialRectangle;overflow=hidden;connectable=0;fillColor=#B9E0A5;top=0;left=0;bottom=0;right=0;align=left;spacingLeft=6;" parent="4jYssweteFKAgpMdDyCE-33" vertex="1">
          <mxGeometry x="30" width="250" height="30" as="geometry">
            <mxRectangle width="250" height="30" as="alternateBounds" />
          </mxGeometry>
        </mxCell>
        <mxCell id="O3_KmsKs-KlMIZ6la9Rg-70" value="" style="shape=partialRectangle;collapsible=0;dropTarget=0;pointerEvents=0;fillColor=#B9E0A5;points=[[0,0.5],[1,0.5]];portConstraint=eastwest;top=0;left=0;right=0;bottom=0;" parent="C-vyLk0tnHw3VtMMgP7b-13" vertex="1">
          <mxGeometry y="150" width="280" height="30" as="geometry" />
        </mxCell>
        <mxCell id="O3_KmsKs-KlMIZ6la9Rg-71" value="" style="shape=partialRectangle;overflow=hidden;connectable=0;fillColor=#B9E0A5;top=0;left=0;bottom=0;right=0;" parent="O3_KmsKs-KlMIZ6la9Rg-70" vertex="1">
          <mxGeometry width="30" height="30" as="geometry">
            <mxRectangle width="30" height="30" as="alternateBounds" />
          </mxGeometry>
        </mxCell>
        <mxCell id="O3_KmsKs-KlMIZ6la9Rg-72" value="diretor: text NOT NULL" style="shape=partialRectangle;overflow=hidden;connectable=0;fillColor=#B9E0A5;top=0;left=0;bottom=0;right=0;align=left;spacingLeft=6;" parent="O3_KmsKs-KlMIZ6la9Rg-70" vertex="1">
          <mxGeometry x="30" width="250" height="30" as="geometry">
            <mxRectangle width="250" height="30" as="alternateBounds" />
          </mxGeometry>
        </mxCell>
        <mxCell id="4jYssweteFKAgpMdDyCE-92" value="" style="shape=partialRectangle;collapsible=0;dropTarget=0;pointerEvents=0;fillColor=#B9E0A5;points=[[0,0.5],[1,0.5]];portConstraint=eastwest;top=0;left=0;right=0;bottom=0;" parent="C-vyLk0tnHw3VtMMgP7b-13" vertex="1">
          <mxGeometry y="180" width="280" height="30" as="geometry" />
        </mxCell>
        <mxCell id="4jYssweteFKAgpMdDyCE-93" value="" style="shape=partialRectangle;overflow=hidden;connectable=0;fillColor=#B9E0A5;top=0;left=0;bottom=0;right=0;" parent="4jYssweteFKAgpMdDyCE-92" vertex="1">
          <mxGeometry width="30" height="30" as="geometry">
            <mxRectangle width="30" height="30" as="alternateBounds" />
          </mxGeometry>
        </mxCell>
        <mxCell id="4jYssweteFKAgpMdDyCE-94" value="minutagem: integer NOT NULL" style="shape=partialRectangle;overflow=hidden;connectable=0;fillColor=#B9E0A5;top=0;left=0;bottom=0;right=0;align=left;spacingLeft=6;" parent="4jYssweteFKAgpMdDyCE-92" vertex="1">
          <mxGeometry x="30" width="250" height="30" as="geometry">
            <mxRectangle width="250" height="30" as="alternateBounds" />
          </mxGeometry>
        </mxCell>
        <mxCell id="C-vyLk0tnHw3VtMMgP7b-23" value="usuarios" style="shape=table;startSize=30;container=1;collapsible=1;childLayout=tableLayout;fixedRows=1;rowLines=0;fontStyle=1;align=center;resizeLast=1;fillColor=#B9E0A5;" parent="1" vertex="1">
          <mxGeometry x="-680" y="110" width="280" height="210" as="geometry" />
        </mxCell>
        <mxCell id="C-vyLk0tnHw3VtMMgP7b-24" value="" style="shape=partialRectangle;collapsible=0;dropTarget=0;pointerEvents=0;fillColor=#B9E0A5;points=[[0,0.5],[1,0.5]];portConstraint=eastwest;top=0;left=0;right=0;bottom=1;" parent="C-vyLk0tnHw3VtMMgP7b-23" vertex="1">
          <mxGeometry y="30" width="280" height="30" as="geometry" />
        </mxCell>
        <mxCell id="C-vyLk0tnHw3VtMMgP7b-25" value="PK" style="shape=partialRectangle;overflow=hidden;connectable=0;fillColor=#B9E0A5;top=0;left=0;bottom=0;right=0;fontStyle=1;" parent="C-vyLk0tnHw3VtMMgP7b-24" vertex="1">
          <mxGeometry width="30" height="30" as="geometry">
            <mxRectangle width="30" height="30" as="alternateBounds" />
          </mxGeometry>
        </mxCell>
        <mxCell id="C-vyLk0tnHw3VtMMgP7b-26" value="id_usuario: integer SERIAL NOT NULL" style="shape=partialRectangle;overflow=hidden;connectable=0;fillColor=#B9E0A5;top=0;left=0;bottom=0;right=0;align=left;spacingLeft=6;fontStyle=5;" parent="C-vyLk0tnHw3VtMMgP7b-24" vertex="1">
          <mxGeometry x="30" width="250" height="30" as="geometry">
            <mxRectangle width="250" height="30" as="alternateBounds" />
          </mxGeometry>
        </mxCell>
        <mxCell id="C-vyLk0tnHw3VtMMgP7b-27" value="" style="shape=partialRectangle;collapsible=0;dropTarget=0;pointerEvents=0;fillColor=#B9E0A5;points=[[0,0.5],[1,0.5]];portConstraint=eastwest;top=0;left=0;right=0;bottom=0;" parent="C-vyLk0tnHw3VtMMgP7b-23" vertex="1">
          <mxGeometry y="60" width="280" height="30" as="geometry" />
        </mxCell>
        <mxCell id="C-vyLk0tnHw3VtMMgP7b-28" value="" style="shape=partialRectangle;overflow=hidden;connectable=0;fillColor=#B9E0A5;top=0;left=0;bottom=0;right=0;" parent="C-vyLk0tnHw3VtMMgP7b-27" vertex="1">
          <mxGeometry width="30" height="30" as="geometry">
            <mxRectangle width="30" height="30" as="alternateBounds" />
          </mxGeometry>
        </mxCell>
        <mxCell id="C-vyLk0tnHw3VtMMgP7b-29" value="nome: varchar(255) NOT NULL" style="shape=partialRectangle;overflow=hidden;connectable=0;fillColor=#B9E0A5;top=0;left=0;bottom=0;right=0;align=left;spacingLeft=6;" parent="C-vyLk0tnHw3VtMMgP7b-27" vertex="1">
          <mxGeometry x="30" width="250" height="30" as="geometry">
            <mxRectangle width="250" height="30" as="alternateBounds" />
          </mxGeometry>
        </mxCell>
        <mxCell id="4jYssweteFKAgpMdDyCE-18" value="" style="shape=partialRectangle;collapsible=0;dropTarget=0;pointerEvents=0;fillColor=#B9E0A5;points=[[0,0.5],[1,0.5]];portConstraint=eastwest;top=0;left=0;right=0;bottom=0;" parent="C-vyLk0tnHw3VtMMgP7b-23" vertex="1">
          <mxGeometry y="90" width="280" height="30" as="geometry" />
        </mxCell>
        <mxCell id="4jYssweteFKAgpMdDyCE-19" value="" style="shape=partialRectangle;overflow=hidden;connectable=0;fillColor=#B9E0A5;top=0;left=0;bottom=0;right=0;" parent="4jYssweteFKAgpMdDyCE-18" vertex="1">
          <mxGeometry width="30" height="30" as="geometry">
            <mxRectangle width="30" height="30" as="alternateBounds" />
          </mxGeometry>
        </mxCell>
        <mxCell id="4jYssweteFKAgpMdDyCE-20" value="idade: integer NOT NULL" style="shape=partialRectangle;overflow=hidden;connectable=0;fillColor=#B9E0A5;top=0;left=0;bottom=0;right=0;align=left;spacingLeft=6;" parent="4jYssweteFKAgpMdDyCE-18" vertex="1">
          <mxGeometry x="30" width="250" height="30" as="geometry">
            <mxRectangle width="250" height="30" as="alternateBounds" />
          </mxGeometry>
        </mxCell>
        <mxCell id="4jYssweteFKAgpMdDyCE-15" value="" style="shape=partialRectangle;collapsible=0;dropTarget=0;pointerEvents=0;fillColor=#B9E0A5;points=[[0,0.5],[1,0.5]];portConstraint=eastwest;top=0;left=0;right=0;bottom=0;" parent="C-vyLk0tnHw3VtMMgP7b-23" vertex="1">
          <mxGeometry y="120" width="280" height="30" as="geometry" />
        </mxCell>
        <mxCell id="4jYssweteFKAgpMdDyCE-16" value="" style="shape=partialRectangle;overflow=hidden;connectable=0;fillColor=#B9E0A5;top=0;left=0;bottom=0;right=0;" parent="4jYssweteFKAgpMdDyCE-15" vertex="1">
          <mxGeometry width="30" height="30" as="geometry">
            <mxRectangle width="30" height="30" as="alternateBounds" />
          </mxGeometry>
        </mxCell>
        <mxCell id="4jYssweteFKAgpMdDyCE-17" value="email: varchar(255) NOT NULL" style="shape=partialRectangle;overflow=hidden;connectable=0;fillColor=#B9E0A5;top=0;left=0;bottom=0;right=0;align=left;spacingLeft=6;" parent="4jYssweteFKAgpMdDyCE-15" vertex="1">
          <mxGeometry x="30" width="250" height="30" as="geometry">
            <mxRectangle width="250" height="30" as="alternateBounds" />
          </mxGeometry>
        </mxCell>
        <mxCell id="4jYssweteFKAgpMdDyCE-21" value="" style="shape=partialRectangle;collapsible=0;dropTarget=0;pointerEvents=0;fillColor=#B9E0A5;points=[[0,0.5],[1,0.5]];portConstraint=eastwest;top=0;left=0;right=0;bottom=0;" parent="C-vyLk0tnHw3VtMMgP7b-23" vertex="1">
          <mxGeometry y="150" width="280" height="30" as="geometry" />
        </mxCell>
        <mxCell id="4jYssweteFKAgpMdDyCE-22" value="" style="shape=partialRectangle;overflow=hidden;connectable=0;fillColor=#B9E0A5;top=0;left=0;bottom=0;right=0;" parent="4jYssweteFKAgpMdDyCE-21" vertex="1">
          <mxGeometry width="30" height="30" as="geometry">
            <mxRectangle width="30" height="30" as="alternateBounds" />
          </mxGeometry>
        </mxCell>
        <mxCell id="4jYssweteFKAgpMdDyCE-23" value="senha: varchar(32) NOT NULL" style="shape=partialRectangle;overflow=hidden;connectable=0;fillColor=#B9E0A5;top=0;left=0;bottom=0;right=0;align=left;spacingLeft=6;" parent="4jYssweteFKAgpMdDyCE-21" vertex="1">
          <mxGeometry x="30" width="250" height="30" as="geometry">
            <mxRectangle width="250" height="30" as="alternateBounds" />
          </mxGeometry>
        </mxCell>
        <mxCell id="4jYssweteFKAgpMdDyCE-73" value="" style="shape=partialRectangle;collapsible=0;dropTarget=0;pointerEvents=0;fillColor=#B9E0A5;points=[[0,0.5],[1,0.5]];portConstraint=eastwest;top=0;left=0;right=0;bottom=0;" parent="C-vyLk0tnHw3VtMMgP7b-23" vertex="1">
          <mxGeometry y="180" width="280" height="30" as="geometry" />
        </mxCell>
        <mxCell id="4jYssweteFKAgpMdDyCE-74" value="FK" style="shape=partialRectangle;overflow=hidden;connectable=0;fillColor=#B9E0A5;top=0;left=0;bottom=0;right=0;" parent="4jYssweteFKAgpMdDyCE-73" vertex="1">
          <mxGeometry width="30" height="30" as="geometry">
            <mxRectangle width="30" height="30" as="alternateBounds" />
          </mxGeometry>
        </mxCell>
        <mxCell id="4jYssweteFKAgpMdDyCE-75" value="fk_id_sala: integer NOT NULL" style="shape=partialRectangle;overflow=hidden;connectable=0;fillColor=#B9E0A5;top=0;left=0;bottom=0;right=0;align=left;spacingLeft=6;" parent="4jYssweteFKAgpMdDyCE-73" vertex="1">
          <mxGeometry x="30" width="250" height="30" as="geometry">
            <mxRectangle width="250" height="30" as="alternateBounds" />
          </mxGeometry>
        </mxCell>
        <mxCell id="4jYssweteFKAgpMdDyCE-1" value="filmes_escolhidos" style="shape=table;startSize=30;container=1;collapsible=1;childLayout=tableLayout;fixedRows=1;rowLines=0;fontStyle=1;align=center;resizeLast=1;fillColor=#B9E0A5;" parent="1" vertex="1">
          <mxGeometry x="-360" y="280" width="320" height="150" as="geometry" />
        </mxCell>
        <mxCell id="4jYssweteFKAgpMdDyCE-2" value="" style="shape=partialRectangle;collapsible=0;dropTarget=0;pointerEvents=0;fillColor=#B9E0A5;points=[[0,0.5],[1,0.5]];portConstraint=eastwest;top=0;left=0;right=0;bottom=1;" parent="4jYssweteFKAgpMdDyCE-1" vertex="1">
          <mxGeometry y="30" width="320" height="30" as="geometry" />
        </mxCell>
        <mxCell id="4jYssweteFKAgpMdDyCE-3" value="PK" style="shape=partialRectangle;overflow=hidden;connectable=0;fillColor=#B9E0A5;top=0;left=0;bottom=0;right=0;fontStyle=1;" parent="4jYssweteFKAgpMdDyCE-2" vertex="1">
          <mxGeometry width="30" height="30" as="geometry">
            <mxRectangle width="30" height="30" as="alternateBounds" />
          </mxGeometry>
        </mxCell>
        <mxCell id="4jYssweteFKAgpMdDyCE-4" value="id_filme_escolhido: integer SERIAL NOT NULL" style="shape=partialRectangle;overflow=hidden;connectable=0;fillColor=#B9E0A5;top=0;left=0;bottom=0;right=0;align=left;spacingLeft=6;fontStyle=5;" parent="4jYssweteFKAgpMdDyCE-2" vertex="1">
          <mxGeometry x="30" width="290" height="30" as="geometry">
            <mxRectangle width="290" height="30" as="alternateBounds" />
          </mxGeometry>
        </mxCell>
        <mxCell id="4jYssweteFKAgpMdDyCE-5" value="" style="shape=partialRectangle;collapsible=0;dropTarget=0;pointerEvents=0;fillColor=#B9E0A5;points=[[0,0.5],[1,0.5]];portConstraint=eastwest;top=0;left=0;right=0;bottom=0;" parent="4jYssweteFKAgpMdDyCE-1" vertex="1">
          <mxGeometry y="60" width="320" height="30" as="geometry" />
        </mxCell>
        <mxCell id="4jYssweteFKAgpMdDyCE-6" value="FK" style="shape=partialRectangle;overflow=hidden;connectable=0;fillColor=#B9E0A5;top=0;left=0;bottom=0;right=0;" parent="4jYssweteFKAgpMdDyCE-5" vertex="1">
          <mxGeometry width="30" height="30" as="geometry">
            <mxRectangle width="30" height="30" as="alternateBounds" />
          </mxGeometry>
        </mxCell>
        <mxCell id="4jYssweteFKAgpMdDyCE-7" value="fk_id_usuario: integer NOT NULL" style="shape=partialRectangle;overflow=hidden;connectable=0;fillColor=#B9E0A5;top=0;left=0;bottom=0;right=0;align=left;spacingLeft=6;" parent="4jYssweteFKAgpMdDyCE-5" vertex="1">
          <mxGeometry x="30" width="290" height="30" as="geometry">
            <mxRectangle width="290" height="30" as="alternateBounds" />
          </mxGeometry>
        </mxCell>
        <mxCell id="4jYssweteFKAgpMdDyCE-51" value="" style="shape=partialRectangle;collapsible=0;dropTarget=0;pointerEvents=0;fillColor=#B9E0A5;points=[[0,0.5],[1,0.5]];portConstraint=eastwest;top=0;left=0;right=0;bottom=0;" parent="4jYssweteFKAgpMdDyCE-1" vertex="1">
          <mxGeometry y="90" width="320" height="30" as="geometry" />
        </mxCell>
        <mxCell id="4jYssweteFKAgpMdDyCE-52" value="FK" style="shape=partialRectangle;overflow=hidden;connectable=0;fillColor=#B9E0A5;top=0;left=0;bottom=0;right=0;" parent="4jYssweteFKAgpMdDyCE-51" vertex="1">
          <mxGeometry width="30" height="30" as="geometry">
            <mxRectangle width="30" height="30" as="alternateBounds" />
          </mxGeometry>
        </mxCell>
        <mxCell id="4jYssweteFKAgpMdDyCE-53" value="fk_id_sala: integer NOT NULL" style="shape=partialRectangle;overflow=hidden;connectable=0;fillColor=#B9E0A5;top=0;left=0;bottom=0;right=0;align=left;spacingLeft=6;" parent="4jYssweteFKAgpMdDyCE-51" vertex="1">
          <mxGeometry x="30" width="290" height="30" as="geometry">
            <mxRectangle width="290" height="30" as="alternateBounds" />
          </mxGeometry>
        </mxCell>
        <mxCell id="4jYssweteFKAgpMdDyCE-48" value="" style="shape=partialRectangle;collapsible=0;dropTarget=0;pointerEvents=0;fillColor=#B9E0A5;points=[[0,0.5],[1,0.5]];portConstraint=eastwest;top=0;left=0;right=0;bottom=0;" parent="4jYssweteFKAgpMdDyCE-1" vertex="1">
          <mxGeometry y="120" width="320" height="30" as="geometry" />
        </mxCell>
        <mxCell id="4jYssweteFKAgpMdDyCE-49" value="FK" style="shape=partialRectangle;overflow=hidden;connectable=0;fillColor=#B9E0A5;top=0;left=0;bottom=0;right=0;" parent="4jYssweteFKAgpMdDyCE-48" vertex="1">
          <mxGeometry width="30" height="30" as="geometry">
            <mxRectangle width="30" height="30" as="alternateBounds" />
          </mxGeometry>
        </mxCell>
        <mxCell id="4jYssweteFKAgpMdDyCE-50" value="fk_id_filme: integer NOT NULL" style="shape=partialRectangle;overflow=hidden;connectable=0;fillColor=#B9E0A5;top=0;left=0;bottom=0;right=0;align=left;spacingLeft=6;" parent="4jYssweteFKAgpMdDyCE-48" vertex="1">
          <mxGeometry x="30" width="290" height="30" as="geometry">
            <mxRectangle width="290" height="30" as="alternateBounds" />
          </mxGeometry>
        </mxCell>
        <mxCell id="4jYssweteFKAgpMdDyCE-84" style="edgeStyle=orthogonalEdgeStyle;rounded=0;orthogonalLoop=1;jettySize=auto;html=1;entryX=1;entryY=0.5;entryDx=0;entryDy=0;" parent="1" source="4jYssweteFKAgpMdDyCE-51" target="C-vyLk0tnHw3VtMMgP7b-3" edge="1">
          <mxGeometry relative="1" as="geometry" />
        </mxCell>
        <mxCell id="4jYssweteFKAgpMdDyCE-86" style="edgeStyle=orthogonalEdgeStyle;rounded=0;orthogonalLoop=1;jettySize=auto;html=1;entryX=0;entryY=0.5;entryDx=0;entryDy=0;" parent="1" source="4jYssweteFKAgpMdDyCE-73" target="C-vyLk0tnHw3VtMMgP7b-3" edge="1">
          <mxGeometry relative="1" as="geometry">
            <Array as="points">
              <mxPoint x="-690" y="305" />
              <mxPoint x="-690" y="385" />
            </Array>
          </mxGeometry>
        </mxCell>
        <mxCell id="4jYssweteFKAgpMdDyCE-91" style="edgeStyle=orthogonalEdgeStyle;rounded=0;orthogonalLoop=1;jettySize=auto;html=1;entryX=1;entryY=0.5;entryDx=0;entryDy=0;" parent="1" source="4jYssweteFKAgpMdDyCE-48" target="C-vyLk0tnHw3VtMMgP7b-14" edge="1">
          <mxGeometry relative="1" as="geometry" />
        </mxCell>
        <mxCell id="O3_KmsKs-KlMIZ6la9Rg-1" value="series" style="shape=table;startSize=30;container=1;collapsible=1;childLayout=tableLayout;fixedRows=1;rowLines=0;fontStyle=1;align=center;resizeLast=1;fillColor=#B9E0A5;strokeColor=#82b366;" parent="1" vertex="1">
          <mxGeometry x="-1040" y="480" width="320" height="210" as="geometry" />
        </mxCell>
        <mxCell id="O3_KmsKs-KlMIZ6la9Rg-2" value="" style="shape=partialRectangle;collapsible=0;dropTarget=0;pointerEvents=0;fillColor=#B9E0A5;points=[[0,0.5],[1,0.5]];portConstraint=eastwest;top=0;left=0;right=0;bottom=1;" parent="O3_KmsKs-KlMIZ6la9Rg-1" vertex="1">
          <mxGeometry y="30" width="320" height="30" as="geometry" />
        </mxCell>
        <mxCell id="O3_KmsKs-KlMIZ6la9Rg-3" value="PK" style="shape=partialRectangle;overflow=hidden;connectable=0;fillColor=#B9E0A5;top=0;left=0;bottom=0;right=0;fontStyle=1;" parent="O3_KmsKs-KlMIZ6la9Rg-2" vertex="1">
          <mxGeometry width="30" height="30" as="geometry">
            <mxRectangle width="30" height="30" as="alternateBounds" />
          </mxGeometry>
        </mxCell>
        <mxCell id="O3_KmsKs-KlMIZ6la9Rg-4" value="id_serie: integer SERIAL NOT NULL" style="shape=partialRectangle;overflow=hidden;connectable=0;fillColor=#B9E0A5;top=0;left=0;bottom=0;right=0;align=left;spacingLeft=6;fontStyle=5;" parent="O3_KmsKs-KlMIZ6la9Rg-2" vertex="1">
          <mxGeometry x="30" width="290" height="30" as="geometry">
            <mxRectangle width="290" height="30" as="alternateBounds" />
          </mxGeometry>
        </mxCell>
        <mxCell id="O3_KmsKs-KlMIZ6la9Rg-5" value="" style="shape=partialRectangle;collapsible=0;dropTarget=0;pointerEvents=0;fillColor=#B9E0A5;points=[[0,0.5],[1,0.5]];portConstraint=eastwest;top=0;left=0;right=0;bottom=0;" parent="O3_KmsKs-KlMIZ6la9Rg-1" vertex="1">
          <mxGeometry y="60" width="320" height="30" as="geometry" />
        </mxCell>
        <mxCell id="O3_KmsKs-KlMIZ6la9Rg-6" value="" style="shape=partialRectangle;overflow=hidden;connectable=0;fillColor=#B9E0A5;top=0;left=0;bottom=0;right=0;" parent="O3_KmsKs-KlMIZ6la9Rg-5" vertex="1">
          <mxGeometry width="30" height="30" as="geometry">
            <mxRectangle width="30" height="30" as="alternateBounds" />
          </mxGeometry>
        </mxCell>
        <mxCell id="O3_KmsKs-KlMIZ6la9Rg-7" value="nome: varchar(255) NOT NULL" style="shape=partialRectangle;overflow=hidden;connectable=0;fillColor=#B9E0A5;top=0;left=0;bottom=0;right=0;align=left;spacingLeft=6;" parent="O3_KmsKs-KlMIZ6la9Rg-5" vertex="1">
          <mxGeometry x="30" width="290" height="30" as="geometry">
            <mxRectangle width="290" height="30" as="alternateBounds" />
          </mxGeometry>
        </mxCell>
        <mxCell id="O3_KmsKs-KlMIZ6la9Rg-8" value="" style="shape=partialRectangle;collapsible=0;dropTarget=0;pointerEvents=0;fillColor=#B9E0A5;points=[[0,0.5],[1,0.5]];portConstraint=eastwest;top=0;left=0;right=0;bottom=0;" parent="O3_KmsKs-KlMIZ6la9Rg-1" vertex="1">
          <mxGeometry y="90" width="320" height="30" as="geometry" />
        </mxCell>
        <mxCell id="O3_KmsKs-KlMIZ6la9Rg-9" value="" style="shape=partialRectangle;overflow=hidden;connectable=0;fillColor=#B9E0A5;top=0;left=0;bottom=0;right=0;" parent="O3_KmsKs-KlMIZ6la9Rg-8" vertex="1">
          <mxGeometry width="30" height="30" as="geometry">
            <mxRectangle width="30" height="30" as="alternateBounds" />
          </mxGeometry>
        </mxCell>
        <mxCell id="O3_KmsKs-KlMIZ6la9Rg-10" value="sinopse: text NOT NULL" style="shape=partialRectangle;overflow=hidden;connectable=0;fillColor=#B9E0A5;top=0;left=0;bottom=0;right=0;align=left;spacingLeft=6;" parent="O3_KmsKs-KlMIZ6la9Rg-8" vertex="1">
          <mxGeometry x="30" width="290" height="30" as="geometry">
            <mxRectangle width="290" height="30" as="alternateBounds" />
          </mxGeometry>
        </mxCell>
        <mxCell id="O3_KmsKs-KlMIZ6la9Rg-11" value="" style="shape=partialRectangle;collapsible=0;dropTarget=0;pointerEvents=0;fillColor=#B9E0A5;points=[[0,0.5],[1,0.5]];portConstraint=eastwest;top=0;left=0;right=0;bottom=0;" parent="O3_KmsKs-KlMIZ6la9Rg-1" vertex="1">
          <mxGeometry y="120" width="320" height="30" as="geometry" />
        </mxCell>
        <mxCell id="O3_KmsKs-KlMIZ6la9Rg-12" value="" style="shape=partialRectangle;overflow=hidden;connectable=0;fillColor=#B9E0A5;top=0;left=0;bottom=0;right=0;" parent="O3_KmsKs-KlMIZ6la9Rg-11" vertex="1">
          <mxGeometry width="30" height="30" as="geometry">
            <mxRectangle width="30" height="30" as="alternateBounds" />
          </mxGeometry>
        </mxCell>
        <mxCell id="O3_KmsKs-KlMIZ6la9Rg-13" value="lancamento: date NOT NULL" style="shape=partialRectangle;overflow=hidden;connectable=0;fillColor=#B9E0A5;top=0;left=0;bottom=0;right=0;align=left;spacingLeft=6;" parent="O3_KmsKs-KlMIZ6la9Rg-11" vertex="1">
          <mxGeometry x="30" width="290" height="30" as="geometry">
            <mxRectangle width="290" height="30" as="alternateBounds" />
          </mxGeometry>
        </mxCell>
        <mxCell id="O3_KmsKs-KlMIZ6la9Rg-24" value="" style="shape=partialRectangle;collapsible=0;dropTarget=0;pointerEvents=0;fillColor=#B9E0A5;points=[[0,0.5],[1,0.5]];portConstraint=eastwest;top=0;left=0;right=0;bottom=0;" parent="O3_KmsKs-KlMIZ6la9Rg-1" vertex="1">
          <mxGeometry y="150" width="320" height="30" as="geometry" />
        </mxCell>
        <mxCell id="O3_KmsKs-KlMIZ6la9Rg-25" value="" style="shape=partialRectangle;overflow=hidden;connectable=0;fillColor=#B9E0A5;top=0;left=0;bottom=0;right=0;" parent="O3_KmsKs-KlMIZ6la9Rg-24" vertex="1">
          <mxGeometry width="30" height="30" as="geometry">
            <mxRectangle width="30" height="30" as="alternateBounds" />
          </mxGeometry>
        </mxCell>
        <mxCell id="O3_KmsKs-KlMIZ6la9Rg-26" value="encerramento: date NOT NULL" style="shape=partialRectangle;overflow=hidden;connectable=0;fillColor=#B9E0A5;top=0;left=0;bottom=0;right=0;align=left;spacingLeft=6;" parent="O3_KmsKs-KlMIZ6la9Rg-24" vertex="1">
          <mxGeometry x="30" width="290" height="30" as="geometry">
            <mxRectangle width="290" height="30" as="alternateBounds" />
          </mxGeometry>
        </mxCell>
        <mxCell id="U60I73bSEBsrePmYxL8--30" value="" style="shape=partialRectangle;collapsible=0;dropTarget=0;pointerEvents=0;fillColor=#B9E0A5;points=[[0,0.5],[1,0.5]];portConstraint=eastwest;top=0;left=0;right=0;bottom=0;" parent="O3_KmsKs-KlMIZ6la9Rg-1" vertex="1">
          <mxGeometry y="180" width="320" height="30" as="geometry" />
        </mxCell>
        <mxCell id="U60I73bSEBsrePmYxL8--31" value="" style="shape=partialRectangle;overflow=hidden;connectable=0;fillColor=#B9E0A5;top=0;left=0;bottom=0;right=0;" parent="U60I73bSEBsrePmYxL8--30" vertex="1">
          <mxGeometry width="30" height="30" as="geometry">
            <mxRectangle width="30" height="30" as="alternateBounds" />
          </mxGeometry>
        </mxCell>
        <mxCell id="U60I73bSEBsrePmYxL8--32" value="minutagem: integer NOT NULL" style="shape=partialRectangle;overflow=hidden;connectable=0;fillColor=#B9E0A5;top=0;left=0;bottom=0;right=0;align=left;spacingLeft=6;" parent="U60I73bSEBsrePmYxL8--30" vertex="1">
          <mxGeometry x="30" width="290" height="30" as="geometry">
            <mxRectangle width="290" height="30" as="alternateBounds" />
          </mxGeometry>
        </mxCell>
        <mxCell id="O3_KmsKs-KlMIZ6la9Rg-27" value="episodios" style="shape=table;startSize=30;container=1;collapsible=1;childLayout=tableLayout;fixedRows=1;rowLines=0;fontStyle=1;align=center;resizeLast=1;fillColor=#bce6a7;" parent="1" vertex="1">
          <mxGeometry x="-1360" y="480" width="280" height="240" as="geometry" />
        </mxCell>
        <mxCell id="O3_KmsKs-KlMIZ6la9Rg-28" value="" style="shape=partialRectangle;collapsible=0;dropTarget=0;pointerEvents=0;fillColor=#bce6a7;points=[[0,0.5],[1,0.5]];portConstraint=eastwest;top=0;left=0;right=0;bottom=1;" parent="O3_KmsKs-KlMIZ6la9Rg-27" vertex="1">
          <mxGeometry y="30" width="280" height="30" as="geometry" />
        </mxCell>
        <mxCell id="O3_KmsKs-KlMIZ6la9Rg-29" value="PK" style="shape=partialRectangle;overflow=hidden;connectable=0;fillColor=#bce6a7;top=0;left=0;bottom=0;right=0;fontStyle=1;" parent="O3_KmsKs-KlMIZ6la9Rg-28" vertex="1">
          <mxGeometry width="30" height="30" as="geometry">
            <mxRectangle width="30" height="30" as="alternateBounds" />
          </mxGeometry>
        </mxCell>
        <mxCell id="O3_KmsKs-KlMIZ6la9Rg-30" value="id_episodio: integer SERIAL NOT NULL" style="shape=partialRectangle;overflow=hidden;connectable=0;fillColor=#bce6a7;top=0;left=0;bottom=0;right=0;align=left;spacingLeft=6;fontStyle=5;" parent="O3_KmsKs-KlMIZ6la9Rg-28" vertex="1">
          <mxGeometry x="30" width="250" height="30" as="geometry">
            <mxRectangle width="250" height="30" as="alternateBounds" />
          </mxGeometry>
        </mxCell>
        <mxCell id="O3_KmsKs-KlMIZ6la9Rg-31" value="" style="shape=partialRectangle;collapsible=0;dropTarget=0;pointerEvents=0;fillColor=#bce6a7;points=[[0,0.5],[1,0.5]];portConstraint=eastwest;top=0;left=0;right=0;bottom=0;" parent="O3_KmsKs-KlMIZ6la9Rg-27" vertex="1">
          <mxGeometry y="60" width="280" height="30" as="geometry" />
        </mxCell>
        <mxCell id="O3_KmsKs-KlMIZ6la9Rg-32" value="" style="shape=partialRectangle;overflow=hidden;connectable=0;fillColor=#bce6a7;top=0;left=0;bottom=0;right=0;" parent="O3_KmsKs-KlMIZ6la9Rg-31" vertex="1">
          <mxGeometry width="30" height="30" as="geometry">
            <mxRectangle width="30" height="30" as="alternateBounds" />
          </mxGeometry>
        </mxCell>
        <mxCell id="O3_KmsKs-KlMIZ6la9Rg-33" value="nome: varchar(255) NOT NULL" style="shape=partialRectangle;overflow=hidden;connectable=0;fillColor=#bce6a7;top=0;left=0;bottom=0;right=0;align=left;spacingLeft=6;" parent="O3_KmsKs-KlMIZ6la9Rg-31" vertex="1">
          <mxGeometry x="30" width="250" height="30" as="geometry">
            <mxRectangle width="250" height="30" as="alternateBounds" />
          </mxGeometry>
        </mxCell>
        <mxCell id="O3_KmsKs-KlMIZ6la9Rg-34" value="" style="shape=partialRectangle;collapsible=0;dropTarget=0;pointerEvents=0;fillColor=#bce6a7;points=[[0,0.5],[1,0.5]];portConstraint=eastwest;top=0;left=0;right=0;bottom=0;" parent="O3_KmsKs-KlMIZ6la9Rg-27" vertex="1">
          <mxGeometry y="90" width="280" height="30" as="geometry" />
        </mxCell>
        <mxCell id="O3_KmsKs-KlMIZ6la9Rg-35" value="" style="shape=partialRectangle;overflow=hidden;connectable=0;fillColor=#bce6a7;top=0;left=0;bottom=0;right=0;" parent="O3_KmsKs-KlMIZ6la9Rg-34" vertex="1">
          <mxGeometry width="30" height="30" as="geometry">
            <mxRectangle width="30" height="30" as="alternateBounds" />
          </mxGeometry>
        </mxCell>
        <mxCell id="O3_KmsKs-KlMIZ6la9Rg-36" value="sinopse: text NOT NULL" style="shape=partialRectangle;overflow=hidden;connectable=0;fillColor=#bce6a7;top=0;left=0;bottom=0;right=0;align=left;spacingLeft=6;" parent="O3_KmsKs-KlMIZ6la9Rg-34" vertex="1">
          <mxGeometry x="30" width="250" height="30" as="geometry">
            <mxRectangle width="250" height="30" as="alternateBounds" />
          </mxGeometry>
        </mxCell>
        <mxCell id="O3_KmsKs-KlMIZ6la9Rg-37" value="" style="shape=partialRectangle;collapsible=0;dropTarget=0;pointerEvents=0;fillColor=#bce6a7;points=[[0,0.5],[1,0.5]];portConstraint=eastwest;top=0;left=0;right=0;bottom=0;" parent="O3_KmsKs-KlMIZ6la9Rg-27" vertex="1">
          <mxGeometry y="120" width="280" height="30" as="geometry" />
        </mxCell>
        <mxCell id="O3_KmsKs-KlMIZ6la9Rg-38" value="" style="shape=partialRectangle;overflow=hidden;connectable=0;fillColor=#bce6a7;top=0;left=0;bottom=0;right=0;" parent="O3_KmsKs-KlMIZ6la9Rg-37" vertex="1">
          <mxGeometry width="30" height="30" as="geometry">
            <mxRectangle width="30" height="30" as="alternateBounds" />
          </mxGeometry>
        </mxCell>
        <mxCell id="O3_KmsKs-KlMIZ6la9Rg-39" value="lancamento: date NOT NULL" style="shape=partialRectangle;overflow=hidden;connectable=0;fillColor=#bce6a7;top=0;left=0;bottom=0;right=0;align=left;spacingLeft=6;" parent="O3_KmsKs-KlMIZ6la9Rg-37" vertex="1">
          <mxGeometry x="30" width="250" height="30" as="geometry">
            <mxRectangle width="250" height="30" as="alternateBounds" />
          </mxGeometry>
        </mxCell>
        <mxCell id="O3_KmsKs-KlMIZ6la9Rg-40" value="" style="shape=partialRectangle;collapsible=0;dropTarget=0;pointerEvents=0;fillColor=#bce6a7;points=[[0,0.5],[1,0.5]];portConstraint=eastwest;top=0;left=0;right=0;bottom=0;" parent="O3_KmsKs-KlMIZ6la9Rg-27" vertex="1">
          <mxGeometry y="150" width="280" height="30" as="geometry" />
        </mxCell>
        <mxCell id="O3_KmsKs-KlMIZ6la9Rg-41" value="" style="shape=partialRectangle;overflow=hidden;connectable=0;fillColor=#bce6a7;top=0;left=0;bottom=0;right=0;" parent="O3_KmsKs-KlMIZ6la9Rg-40" vertex="1">
          <mxGeometry width="30" height="30" as="geometry">
            <mxRectangle width="30" height="30" as="alternateBounds" />
          </mxGeometry>
        </mxCell>
        <mxCell id="O3_KmsKs-KlMIZ6la9Rg-42" value="numero_episodio: integer NOT NULL" style="shape=partialRectangle;overflow=hidden;connectable=0;fillColor=#bce6a7;top=0;left=0;bottom=0;right=0;align=left;spacingLeft=6;" parent="O3_KmsKs-KlMIZ6la9Rg-40" vertex="1">
          <mxGeometry x="30" width="250" height="30" as="geometry">
            <mxRectangle width="250" height="30" as="alternateBounds" />
          </mxGeometry>
        </mxCell>
        <mxCell id="O3_KmsKs-KlMIZ6la9Rg-46" value="" style="shape=partialRectangle;collapsible=0;dropTarget=0;pointerEvents=0;fillColor=#bce6a7;points=[[0,0.5],[1,0.5]];portConstraint=eastwest;top=0;left=0;right=0;bottom=0;" parent="O3_KmsKs-KlMIZ6la9Rg-27" vertex="1">
          <mxGeometry y="180" width="280" height="30" as="geometry" />
        </mxCell>
        <mxCell id="O3_KmsKs-KlMIZ6la9Rg-47" value="" style="shape=partialRectangle;overflow=hidden;connectable=0;fillColor=#bce6a7;top=0;left=0;bottom=0;right=0;" parent="O3_KmsKs-KlMIZ6la9Rg-46" vertex="1">
          <mxGeometry width="30" height="30" as="geometry">
            <mxRectangle width="30" height="30" as="alternateBounds" />
          </mxGeometry>
        </mxCell>
        <mxCell id="O3_KmsKs-KlMIZ6la9Rg-48" value="numero_temporada: integer NOT NULL" style="shape=partialRectangle;overflow=hidden;connectable=0;fillColor=#bce6a7;top=0;left=0;bottom=0;right=0;align=left;spacingLeft=6;" parent="O3_KmsKs-KlMIZ6la9Rg-46" vertex="1">
          <mxGeometry x="30" width="250" height="30" as="geometry">
            <mxRectangle width="250" height="30" as="alternateBounds" />
          </mxGeometry>
        </mxCell>
        <mxCell id="O3_KmsKs-KlMIZ6la9Rg-49" value="" style="shape=partialRectangle;collapsible=0;dropTarget=0;pointerEvents=0;fillColor=#bce6a7;points=[[0,0.5],[1,0.5]];portConstraint=eastwest;top=0;left=0;right=0;bottom=0;" parent="O3_KmsKs-KlMIZ6la9Rg-27" vertex="1">
          <mxGeometry y="210" width="280" height="30" as="geometry" />
        </mxCell>
        <mxCell id="O3_KmsKs-KlMIZ6la9Rg-50" value="FK" style="shape=partialRectangle;overflow=hidden;connectable=0;fillColor=#bce6a7;top=0;left=0;bottom=0;right=0;" parent="O3_KmsKs-KlMIZ6la9Rg-49" vertex="1">
          <mxGeometry width="30" height="30" as="geometry">
            <mxRectangle width="30" height="30" as="alternateBounds" />
          </mxGeometry>
        </mxCell>
        <mxCell id="O3_KmsKs-KlMIZ6la9Rg-51" value="fk_id_serie: integer NOT NULL" style="shape=partialRectangle;overflow=hidden;connectable=0;fillColor=#bce6a7;top=0;left=0;bottom=0;right=0;align=left;spacingLeft=6;" parent="O3_KmsKs-KlMIZ6la9Rg-49" vertex="1">
          <mxGeometry x="30" width="250" height="30" as="geometry">
            <mxRectangle width="250" height="30" as="alternateBounds" />
          </mxGeometry>
        </mxCell>
        <mxCell id="O3_KmsKs-KlMIZ6la9Rg-52" style="edgeStyle=orthogonalEdgeStyle;rounded=0;orthogonalLoop=1;jettySize=auto;html=1;entryX=0;entryY=0.5;entryDx=0;entryDy=0;" parent="1" source="O3_KmsKs-KlMIZ6la9Rg-49" target="O3_KmsKs-KlMIZ6la9Rg-2" edge="1">
          <mxGeometry relative="1" as="geometry">
            <Array as="points">
              <mxPoint x="-1070" y="705" />
              <mxPoint x="-1070" y="525" />
            </Array>
          </mxGeometry>
        </mxCell>
        <mxCell id="O3_KmsKs-KlMIZ6la9Rg-53" value="series_escolhidas" style="shape=table;startSize=30;container=1;collapsible=1;childLayout=tableLayout;fixedRows=1;rowLines=0;fontStyle=1;align=center;resizeLast=1;fillColor=#B9E0A5;" parent="1" vertex="1">
          <mxGeometry x="-1040" y="110" width="320" height="150" as="geometry" />
        </mxCell>
        <mxCell id="O3_KmsKs-KlMIZ6la9Rg-54" value="" style="shape=partialRectangle;collapsible=0;dropTarget=0;pointerEvents=0;fillColor=#B9E0A5;points=[[0,0.5],[1,0.5]];portConstraint=eastwest;top=0;left=0;right=0;bottom=1;" parent="O3_KmsKs-KlMIZ6la9Rg-53" vertex="1">
          <mxGeometry y="30" width="320" height="30" as="geometry" />
        </mxCell>
        <mxCell id="O3_KmsKs-KlMIZ6la9Rg-55" value="PK" style="shape=partialRectangle;overflow=hidden;connectable=0;fillColor=none;top=0;left=0;bottom=0;right=0;fontStyle=1;" parent="O3_KmsKs-KlMIZ6la9Rg-54" vertex="1">
          <mxGeometry width="30" height="30" as="geometry">
            <mxRectangle width="30" height="30" as="alternateBounds" />
          </mxGeometry>
        </mxCell>
        <mxCell id="O3_KmsKs-KlMIZ6la9Rg-56" value="id_serie_escolhida: integer SERIAL NOT NULL" style="shape=partialRectangle;overflow=hidden;connectable=0;fillColor=none;top=0;left=0;bottom=0;right=0;align=left;spacingLeft=6;fontStyle=5;" parent="O3_KmsKs-KlMIZ6la9Rg-54" vertex="1">
          <mxGeometry x="30" width="290" height="30" as="geometry">
            <mxRectangle width="290" height="30" as="alternateBounds" />
          </mxGeometry>
        </mxCell>
        <mxCell id="O3_KmsKs-KlMIZ6la9Rg-57" value="" style="shape=partialRectangle;collapsible=0;dropTarget=0;pointerEvents=0;fillColor=#B9E0A5;points=[[0,0.5],[1,0.5]];portConstraint=eastwest;top=0;left=0;right=0;bottom=0;" parent="O3_KmsKs-KlMIZ6la9Rg-53" vertex="1">
          <mxGeometry y="60" width="320" height="30" as="geometry" />
        </mxCell>
        <mxCell id="O3_KmsKs-KlMIZ6la9Rg-58" value="FK" style="shape=partialRectangle;overflow=hidden;connectable=0;fillColor=#B9E0A5;top=0;left=0;bottom=0;right=0;" parent="O3_KmsKs-KlMIZ6la9Rg-57" vertex="1">
          <mxGeometry width="30" height="30" as="geometry">
            <mxRectangle width="30" height="30" as="alternateBounds" />
          </mxGeometry>
        </mxCell>
        <mxCell id="O3_KmsKs-KlMIZ6la9Rg-59" value="fk_id_usuario: integer NOT NULL" style="shape=partialRectangle;overflow=hidden;connectable=0;fillColor=#B9E0A5;top=0;left=0;bottom=0;right=0;align=left;spacingLeft=6;" parent="O3_KmsKs-KlMIZ6la9Rg-57" vertex="1">
          <mxGeometry x="30" width="290" height="30" as="geometry">
            <mxRectangle width="290" height="30" as="alternateBounds" />
          </mxGeometry>
        </mxCell>
        <mxCell id="O3_KmsKs-KlMIZ6la9Rg-60" value="" style="shape=partialRectangle;collapsible=0;dropTarget=0;pointerEvents=0;fillColor=#B9E0A5;points=[[0,0.5],[1,0.5]];portConstraint=eastwest;top=0;left=0;right=0;bottom=0;" parent="O3_KmsKs-KlMIZ6la9Rg-53" vertex="1">
          <mxGeometry y="90" width="320" height="30" as="geometry" />
        </mxCell>
        <mxCell id="O3_KmsKs-KlMIZ6la9Rg-61" value="FK" style="shape=partialRectangle;overflow=hidden;connectable=0;fillColor=#B9E0A5;top=0;left=0;bottom=0;right=0;" parent="O3_KmsKs-KlMIZ6la9Rg-60" vertex="1">
          <mxGeometry width="30" height="30" as="geometry">
            <mxRectangle width="30" height="30" as="alternateBounds" />
          </mxGeometry>
        </mxCell>
        <mxCell id="O3_KmsKs-KlMIZ6la9Rg-62" value="fk_id_sala: integer NOT NULL" style="shape=partialRectangle;overflow=hidden;connectable=0;fillColor=#B9E0A5;top=0;left=0;bottom=0;right=0;align=left;spacingLeft=6;" parent="O3_KmsKs-KlMIZ6la9Rg-60" vertex="1">
          <mxGeometry x="30" width="290" height="30" as="geometry">
            <mxRectangle width="290" height="30" as="alternateBounds" />
          </mxGeometry>
        </mxCell>
        <mxCell id="O3_KmsKs-KlMIZ6la9Rg-63" value="" style="shape=partialRectangle;collapsible=0;dropTarget=0;pointerEvents=0;fillColor=#B9E0A5;points=[[0,0.5],[1,0.5]];portConstraint=eastwest;top=0;left=0;right=0;bottom=0;" parent="O3_KmsKs-KlMIZ6la9Rg-53" vertex="1">
          <mxGeometry y="120" width="320" height="30" as="geometry" />
        </mxCell>
        <mxCell id="O3_KmsKs-KlMIZ6la9Rg-64" value="FK" style="shape=partialRectangle;overflow=hidden;connectable=0;fillColor=#B9E0A5;top=0;left=0;bottom=0;right=0;" parent="O3_KmsKs-KlMIZ6la9Rg-63" vertex="1">
          <mxGeometry width="30" height="30" as="geometry">
            <mxRectangle width="30" height="30" as="alternateBounds" />
          </mxGeometry>
        </mxCell>
        <mxCell id="O3_KmsKs-KlMIZ6la9Rg-65" value="fk_id_serie: integer NOT NULL" style="shape=partialRectangle;overflow=hidden;connectable=0;fillColor=#B9E0A5;top=0;left=0;bottom=0;right=0;align=left;spacingLeft=6;" parent="O3_KmsKs-KlMIZ6la9Rg-63" vertex="1">
          <mxGeometry x="30" width="290" height="30" as="geometry">
            <mxRectangle width="290" height="30" as="alternateBounds" />
          </mxGeometry>
        </mxCell>
        <mxCell id="O3_KmsKs-KlMIZ6la9Rg-66" style="edgeStyle=orthogonalEdgeStyle;rounded=0;orthogonalLoop=1;jettySize=auto;html=1;entryX=0;entryY=0.5;entryDx=0;entryDy=0;" parent="1" source="O3_KmsKs-KlMIZ6la9Rg-57" target="C-vyLk0tnHw3VtMMgP7b-24" edge="1">
          <mxGeometry relative="1" as="geometry" />
        </mxCell>
        <mxCell id="O3_KmsKs-KlMIZ6la9Rg-67" style="edgeStyle=orthogonalEdgeStyle;rounded=0;orthogonalLoop=1;jettySize=auto;html=1;entryX=1;entryY=0.5;entryDx=0;entryDy=0;" parent="1" source="4jYssweteFKAgpMdDyCE-5" target="C-vyLk0tnHw3VtMMgP7b-24" edge="1">
          <mxGeometry relative="1" as="geometry" />
        </mxCell>
        <mxCell id="O3_KmsKs-KlMIZ6la9Rg-68" style="edgeStyle=orthogonalEdgeStyle;rounded=0;orthogonalLoop=1;jettySize=auto;html=1;entryX=0;entryY=0.5;entryDx=0;entryDy=0;" parent="1" source="O3_KmsKs-KlMIZ6la9Rg-60" target="C-vyLk0tnHw3VtMMgP7b-3" edge="1">
          <mxGeometry relative="1" as="geometry" />
        </mxCell>
        <mxCell id="O3_KmsKs-KlMIZ6la9Rg-73" value="generos" style="shape=table;startSize=30;container=1;collapsible=1;childLayout=tableLayout;fixedRows=1;rowLines=0;fontStyle=1;align=center;resizeLast=1;fillColor=#B9E0A5;" parent="1" vertex="1">
          <mxGeometry x="-1040" y="920" width="320" height="90" as="geometry" />
        </mxCell>
        <mxCell id="O3_KmsKs-KlMIZ6la9Rg-74" value="" style="shape=partialRectangle;collapsible=0;dropTarget=0;pointerEvents=0;fillColor=#B9E0A5;points=[[0,0.5],[1,0.5]];portConstraint=eastwest;top=0;left=0;right=0;bottom=1;" parent="O3_KmsKs-KlMIZ6la9Rg-73" vertex="1">
          <mxGeometry y="30" width="320" height="30" as="geometry" />
        </mxCell>
        <mxCell id="O3_KmsKs-KlMIZ6la9Rg-75" value="PK" style="shape=partialRectangle;overflow=hidden;connectable=0;fillColor=#B9E0A5;top=0;left=0;bottom=0;right=0;fontStyle=1;" parent="O3_KmsKs-KlMIZ6la9Rg-74" vertex="1">
          <mxGeometry width="30" height="30" as="geometry">
            <mxRectangle width="30" height="30" as="alternateBounds" />
          </mxGeometry>
        </mxCell>
        <mxCell id="O3_KmsKs-KlMIZ6la9Rg-76" value="id_genero: integer SERIAL NOT NULL" style="shape=partialRectangle;overflow=hidden;connectable=0;fillColor=#B9E0A5;top=0;left=0;bottom=0;right=0;align=left;spacingLeft=6;fontStyle=5;" parent="O3_KmsKs-KlMIZ6la9Rg-74" vertex="1">
          <mxGeometry x="30" width="290" height="30" as="geometry">
            <mxRectangle width="290" height="30" as="alternateBounds" />
          </mxGeometry>
        </mxCell>
        <mxCell id="O3_KmsKs-KlMIZ6la9Rg-77" value="" style="shape=partialRectangle;collapsible=0;dropTarget=0;pointerEvents=0;fillColor=#B9E0A5;points=[[0,0.5],[1,0.5]];portConstraint=eastwest;top=0;left=0;right=0;bottom=0;" parent="O3_KmsKs-KlMIZ6la9Rg-73" vertex="1">
          <mxGeometry y="60" width="320" height="30" as="geometry" />
        </mxCell>
        <mxCell id="O3_KmsKs-KlMIZ6la9Rg-78" value="" style="shape=partialRectangle;overflow=hidden;connectable=0;fillColor=#B9E0A5;top=0;left=0;bottom=0;right=0;" parent="O3_KmsKs-KlMIZ6la9Rg-77" vertex="1">
          <mxGeometry width="30" height="30" as="geometry">
            <mxRectangle width="30" height="30" as="alternateBounds" />
          </mxGeometry>
        </mxCell>
        <mxCell id="O3_KmsKs-KlMIZ6la9Rg-79" value="nome: varchar(255) NOT NULL" style="shape=partialRectangle;overflow=hidden;connectable=0;fillColor=#B9E0A5;top=0;left=0;bottom=0;right=0;align=left;spacingLeft=6;" parent="O3_KmsKs-KlMIZ6la9Rg-77" vertex="1">
          <mxGeometry x="30" width="290" height="30" as="geometry">
            <mxRectangle width="290" height="30" as="alternateBounds" />
          </mxGeometry>
        </mxCell>
        <mxCell id="O3_KmsKs-KlMIZ6la9Rg-95" value="midia_genero" style="shape=table;startSize=30;container=1;collapsible=1;childLayout=tableLayout;fixedRows=1;rowLines=0;fontStyle=1;align=center;resizeLast=1;fillColor=#B9E0A5;" parent="1" vertex="1">
          <mxGeometry x="-1040" y="720" width="320" height="180" as="geometry" />
        </mxCell>
        <mxCell id="O3_KmsKs-KlMIZ6la9Rg-96" value="" style="shape=partialRectangle;collapsible=0;dropTarget=0;pointerEvents=0;fillColor=#B9E0A5;points=[[0,0.5],[1,0.5]];portConstraint=eastwest;top=0;left=0;right=0;bottom=1;" parent="O3_KmsKs-KlMIZ6la9Rg-95" vertex="1">
          <mxGeometry y="30" width="320" height="30" as="geometry" />
        </mxCell>
        <mxCell id="O3_KmsKs-KlMIZ6la9Rg-97" value="PK" style="shape=partialRectangle;overflow=hidden;connectable=0;fillColor=#B9E0A5;top=0;left=0;bottom=0;right=0;fontStyle=1;" parent="O3_KmsKs-KlMIZ6la9Rg-96" vertex="1">
          <mxGeometry width="30" height="30" as="geometry">
            <mxRectangle width="30" height="30" as="alternateBounds" />
          </mxGeometry>
        </mxCell>
        <mxCell id="O3_KmsKs-KlMIZ6la9Rg-98" value="id_midia_genero: integer SERIAL NOT NULL" style="shape=partialRectangle;overflow=hidden;connectable=0;fillColor=#B9E0A5;top=0;left=0;bottom=0;right=0;align=left;spacingLeft=6;fontStyle=5;" parent="O3_KmsKs-KlMIZ6la9Rg-96" vertex="1">
          <mxGeometry x="30" width="290" height="30" as="geometry">
            <mxRectangle width="290" height="30" as="alternateBounds" />
          </mxGeometry>
        </mxCell>
        <mxCell id="O3_KmsKs-KlMIZ6la9Rg-99" value="" style="shape=partialRectangle;collapsible=0;dropTarget=0;pointerEvents=0;fillColor=#B9E0A5;points=[[0,0.5],[1,0.5]];portConstraint=eastwest;top=0;left=0;right=0;bottom=0;" parent="O3_KmsKs-KlMIZ6la9Rg-95" vertex="1">
          <mxGeometry y="60" width="320" height="30" as="geometry" />
        </mxCell>
        <mxCell id="O3_KmsKs-KlMIZ6la9Rg-100" value="FK" style="shape=partialRectangle;overflow=hidden;connectable=0;fillColor=#B9E0A5;top=0;left=0;bottom=0;right=0;" parent="O3_KmsKs-KlMIZ6la9Rg-99" vertex="1">
          <mxGeometry width="30" height="30" as="geometry">
            <mxRectangle width="30" height="30" as="alternateBounds" />
          </mxGeometry>
        </mxCell>
        <mxCell id="O3_KmsKs-KlMIZ6la9Rg-101" value="fk_id_filme: integer NOT NULL DEFAULT -1" style="shape=partialRectangle;overflow=hidden;connectable=0;fillColor=#B9E0A5;top=0;left=0;bottom=0;right=0;align=left;spacingLeft=6;" parent="O3_KmsKs-KlMIZ6la9Rg-99" vertex="1">
          <mxGeometry x="30" width="290" height="30" as="geometry">
            <mxRectangle width="290" height="30" as="alternateBounds" />
          </mxGeometry>
        </mxCell>
        <mxCell id="O3_KmsKs-KlMIZ6la9Rg-102" value="" style="shape=partialRectangle;collapsible=0;dropTarget=0;pointerEvents=0;fillColor=#B9E0A5;points=[[0,0.5],[1,0.5]];portConstraint=eastwest;top=0;left=0;right=0;bottom=0;" parent="O3_KmsKs-KlMIZ6la9Rg-95" vertex="1">
          <mxGeometry y="90" width="320" height="30" as="geometry" />
        </mxCell>
        <mxCell id="O3_KmsKs-KlMIZ6la9Rg-103" value="FK" style="shape=partialRectangle;overflow=hidden;connectable=0;fillColor=#B9E0A5;top=0;left=0;bottom=0;right=0;" parent="O3_KmsKs-KlMIZ6la9Rg-102" vertex="1">
          <mxGeometry width="30" height="30" as="geometry">
            <mxRectangle width="30" height="30" as="alternateBounds" />
          </mxGeometry>
        </mxCell>
        <mxCell id="O3_KmsKs-KlMIZ6la9Rg-104" value="fk_id_serie: integer NOT NULL DEFAULT -1" style="shape=partialRectangle;overflow=hidden;connectable=0;fillColor=#B9E0A5;top=0;left=0;bottom=0;right=0;align=left;spacingLeft=6;" parent="O3_KmsKs-KlMIZ6la9Rg-102" vertex="1">
          <mxGeometry x="30" width="290" height="30" as="geometry">
            <mxRectangle width="290" height="30" as="alternateBounds" />
          </mxGeometry>
        </mxCell>
        <mxCell id="O3_KmsKs-KlMIZ6la9Rg-105" value="" style="shape=partialRectangle;collapsible=0;dropTarget=0;pointerEvents=0;fillColor=#B9E0A5;points=[[0,0.5],[1,0.5]];portConstraint=eastwest;top=0;left=0;right=0;bottom=0;" parent="O3_KmsKs-KlMIZ6la9Rg-95" vertex="1">
          <mxGeometry y="120" width="320" height="30" as="geometry" />
        </mxCell>
        <mxCell id="O3_KmsKs-KlMIZ6la9Rg-106" value="FK" style="shape=partialRectangle;overflow=hidden;connectable=0;fillColor=#B9E0A5;top=0;left=0;bottom=0;right=0;" parent="O3_KmsKs-KlMIZ6la9Rg-105" vertex="1">
          <mxGeometry width="30" height="30" as="geometry">
            <mxRectangle width="30" height="30" as="alternateBounds" />
          </mxGeometry>
        </mxCell>
        <mxCell id="O3_KmsKs-KlMIZ6la9Rg-107" value="fk_id_episodio: integer NOT NULL DEFAULT -1" style="shape=partialRectangle;overflow=hidden;connectable=0;fillColor=#B9E0A5;top=0;left=0;bottom=0;right=0;align=left;spacingLeft=6;" parent="O3_KmsKs-KlMIZ6la9Rg-105" vertex="1">
          <mxGeometry x="30" width="290" height="30" as="geometry">
            <mxRectangle width="290" height="30" as="alternateBounds" />
          </mxGeometry>
        </mxCell>
        <mxCell id="O3_KmsKs-KlMIZ6la9Rg-108" value="" style="shape=partialRectangle;collapsible=0;dropTarget=0;pointerEvents=0;fillColor=#B9E0A5;points=[[0,0.5],[1,0.5]];portConstraint=eastwest;top=0;left=0;right=0;bottom=0;" parent="O3_KmsKs-KlMIZ6la9Rg-95" vertex="1">
          <mxGeometry y="150" width="320" height="30" as="geometry" />
        </mxCell>
        <mxCell id="O3_KmsKs-KlMIZ6la9Rg-109" value="FK" style="shape=partialRectangle;overflow=hidden;connectable=0;fillColor=#B9E0A5;top=0;left=0;bottom=0;right=0;" parent="O3_KmsKs-KlMIZ6la9Rg-108" vertex="1">
          <mxGeometry width="30" height="30" as="geometry">
            <mxRectangle width="30" height="30" as="alternateBounds" />
          </mxGeometry>
        </mxCell>
        <mxCell id="O3_KmsKs-KlMIZ6la9Rg-110" value="fk_id_genero: integer NOT NULL" style="shape=partialRectangle;overflow=hidden;connectable=0;fillColor=#B9E0A5;top=0;left=0;bottom=0;right=0;align=left;spacingLeft=6;" parent="O3_KmsKs-KlMIZ6la9Rg-108" vertex="1">
          <mxGeometry x="30" width="290" height="30" as="geometry">
            <mxRectangle width="290" height="30" as="alternateBounds" />
          </mxGeometry>
        </mxCell>
        <mxCell id="O3_KmsKs-KlMIZ6la9Rg-111" style="edgeStyle=orthogonalEdgeStyle;rounded=0;orthogonalLoop=1;jettySize=auto;html=1;entryX=0;entryY=0.5;entryDx=0;entryDy=0;" parent="1" source="O3_KmsKs-KlMIZ6la9Rg-108" target="O3_KmsKs-KlMIZ6la9Rg-74" edge="1">
          <mxGeometry relative="1" as="geometry" />
        </mxCell>
        <mxCell id="O3_KmsKs-KlMIZ6la9Rg-112" style="edgeStyle=orthogonalEdgeStyle;rounded=0;orthogonalLoop=1;jettySize=auto;html=1;entryX=0;entryY=0.5;entryDx=0;entryDy=0;" parent="1" source="O3_KmsKs-KlMIZ6la9Rg-105" target="O3_KmsKs-KlMIZ6la9Rg-28" edge="1">
          <mxGeometry relative="1" as="geometry">
            <Array as="points">
              <mxPoint x="-1390" y="860" />
              <mxPoint x="-1390" y="525" />
            </Array>
          </mxGeometry>
        </mxCell>
        <mxCell id="O3_KmsKs-KlMIZ6la9Rg-113" style="edgeStyle=orthogonalEdgeStyle;rounded=0;orthogonalLoop=1;jettySize=auto;html=1;entryX=0;entryY=0.5;entryDx=0;entryDy=0;" parent="1" source="O3_KmsKs-KlMIZ6la9Rg-102" target="O3_KmsKs-KlMIZ6la9Rg-2" edge="1">
          <mxGeometry relative="1" as="geometry">
            <Array as="points">
              <mxPoint x="-1050" y="840" />
              <mxPoint x="-1050" y="525" />
            </Array>
          </mxGeometry>
        </mxCell>
        <mxCell id="O3_KmsKs-KlMIZ6la9Rg-114" style="edgeStyle=orthogonalEdgeStyle;rounded=0;orthogonalLoop=1;jettySize=auto;html=1;entryX=0;entryY=0.5;entryDx=0;entryDy=0;" parent="1" source="O3_KmsKs-KlMIZ6la9Rg-99" target="C-vyLk0tnHw3VtMMgP7b-14" edge="1">
          <mxGeometry relative="1" as="geometry">
            <Array as="points">
              <mxPoint x="-700" y="810" />
              <mxPoint x="-700" y="525" />
            </Array>
          </mxGeometry>
        </mxCell>
        <mxCell id="U60I73bSEBsrePmYxL8--1" value="midia_atores" style="shape=table;startSize=30;container=1;collapsible=1;childLayout=tableLayout;fixedRows=1;rowLines=0;fontStyle=1;align=center;resizeLast=1;fillColor=#B9E0A5;" parent="1" vertex="1">
          <mxGeometry x="-1040" y="280" width="320" height="180" as="geometry" />
        </mxCell>
        <mxCell id="U60I73bSEBsrePmYxL8--2" value="" style="shape=partialRectangle;collapsible=0;dropTarget=0;pointerEvents=0;fillColor=#B9E0A5;points=[[0,0.5],[1,0.5]];portConstraint=eastwest;top=0;left=0;right=0;bottom=1;" parent="U60I73bSEBsrePmYxL8--1" vertex="1">
          <mxGeometry y="30" width="320" height="30" as="geometry" />
        </mxCell>
        <mxCell id="U60I73bSEBsrePmYxL8--3" value="PK" style="shape=partialRectangle;overflow=hidden;connectable=0;fillColor=#B9E0A5;top=0;left=0;bottom=0;right=0;fontStyle=1;" parent="U60I73bSEBsrePmYxL8--2" vertex="1">
          <mxGeometry width="30" height="30" as="geometry">
            <mxRectangle width="30" height="30" as="alternateBounds" />
          </mxGeometry>
        </mxCell>
        <mxCell id="U60I73bSEBsrePmYxL8--4" value="id_midia_atores: integer SERIAL NOT NULL" style="shape=partialRectangle;overflow=hidden;connectable=0;fillColor=#B9E0A5;top=0;left=0;bottom=0;right=0;align=left;spacingLeft=6;fontStyle=5;" parent="U60I73bSEBsrePmYxL8--2" vertex="1">
          <mxGeometry x="30" width="290" height="30" as="geometry">
            <mxRectangle width="290" height="30" as="alternateBounds" />
          </mxGeometry>
        </mxCell>
        <mxCell id="U60I73bSEBsrePmYxL8--5" value="" style="shape=partialRectangle;collapsible=0;dropTarget=0;pointerEvents=0;fillColor=#B9E0A5;points=[[0,0.5],[1,0.5]];portConstraint=eastwest;top=0;left=0;right=0;bottom=0;" parent="U60I73bSEBsrePmYxL8--1" vertex="1">
          <mxGeometry y="60" width="320" height="30" as="geometry" />
        </mxCell>
        <mxCell id="U60I73bSEBsrePmYxL8--6" value="FK" style="shape=partialRectangle;overflow=hidden;connectable=0;fillColor=#B9E0A5;top=0;left=0;bottom=0;right=0;" parent="U60I73bSEBsrePmYxL8--5" vertex="1">
          <mxGeometry width="30" height="30" as="geometry">
            <mxRectangle width="30" height="30" as="alternateBounds" />
          </mxGeometry>
        </mxCell>
        <mxCell id="U60I73bSEBsrePmYxL8--7" value="fk_id_filme: integer NOT NULL DEFAULT -1" style="shape=partialRectangle;overflow=hidden;connectable=0;fillColor=#B9E0A5;top=0;left=0;bottom=0;right=0;align=left;spacingLeft=6;" parent="U60I73bSEBsrePmYxL8--5" vertex="1">
          <mxGeometry x="30" width="290" height="30" as="geometry">
            <mxRectangle width="290" height="30" as="alternateBounds" />
          </mxGeometry>
        </mxCell>
        <mxCell id="U60I73bSEBsrePmYxL8--8" value="" style="shape=partialRectangle;collapsible=0;dropTarget=0;pointerEvents=0;fillColor=#B9E0A5;points=[[0,0.5],[1,0.5]];portConstraint=eastwest;top=0;left=0;right=0;bottom=0;" parent="U60I73bSEBsrePmYxL8--1" vertex="1">
          <mxGeometry y="90" width="320" height="30" as="geometry" />
        </mxCell>
        <mxCell id="U60I73bSEBsrePmYxL8--9" value="FK" style="shape=partialRectangle;overflow=hidden;connectable=0;fillColor=#B9E0A5;top=0;left=0;bottom=0;right=0;" parent="U60I73bSEBsrePmYxL8--8" vertex="1">
          <mxGeometry width="30" height="30" as="geometry">
            <mxRectangle width="30" height="30" as="alternateBounds" />
          </mxGeometry>
        </mxCell>
        <mxCell id="U60I73bSEBsrePmYxL8--10" value="fk_id_serie: integer NOT NULL DEFAULT -1" style="shape=partialRectangle;overflow=hidden;connectable=0;fillColor=#B9E0A5;top=0;left=0;bottom=0;right=0;align=left;spacingLeft=6;" parent="U60I73bSEBsrePmYxL8--8" vertex="1">
          <mxGeometry x="30" width="290" height="30" as="geometry">
            <mxRectangle width="290" height="30" as="alternateBounds" />
          </mxGeometry>
        </mxCell>
        <mxCell id="U60I73bSEBsrePmYxL8--11" value="" style="shape=partialRectangle;collapsible=0;dropTarget=0;pointerEvents=0;fillColor=#B9E0A5;points=[[0,0.5],[1,0.5]];portConstraint=eastwest;top=0;left=0;right=0;bottom=0;" parent="U60I73bSEBsrePmYxL8--1" vertex="1">
          <mxGeometry y="120" width="320" height="30" as="geometry" />
        </mxCell>
        <mxCell id="U60I73bSEBsrePmYxL8--12" value="FK" style="shape=partialRectangle;overflow=hidden;connectable=0;fillColor=#B9E0A5;top=0;left=0;bottom=0;right=0;" parent="U60I73bSEBsrePmYxL8--11" vertex="1">
          <mxGeometry width="30" height="30" as="geometry">
            <mxRectangle width="30" height="30" as="alternateBounds" />
          </mxGeometry>
        </mxCell>
        <mxCell id="U60I73bSEBsrePmYxL8--13" value="fk_id_episodio: integer NOT NULL DEFAULT -1" style="shape=partialRectangle;overflow=hidden;connectable=0;fillColor=#B9E0A5;top=0;left=0;bottom=0;right=0;align=left;spacingLeft=6;" parent="U60I73bSEBsrePmYxL8--11" vertex="1">
          <mxGeometry x="30" width="290" height="30" as="geometry">
            <mxRectangle width="290" height="30" as="alternateBounds" />
          </mxGeometry>
        </mxCell>
        <mxCell id="U60I73bSEBsrePmYxL8--14" value="" style="shape=partialRectangle;collapsible=0;dropTarget=0;pointerEvents=0;fillColor=#B9E0A5;points=[[0,0.5],[1,0.5]];portConstraint=eastwest;top=0;left=0;right=0;bottom=0;" parent="U60I73bSEBsrePmYxL8--1" vertex="1">
          <mxGeometry y="150" width="320" height="30" as="geometry" />
        </mxCell>
        <mxCell id="U60I73bSEBsrePmYxL8--15" value="FK" style="shape=partialRectangle;overflow=hidden;connectable=0;fillColor=#B9E0A5;top=0;left=0;bottom=0;right=0;" parent="U60I73bSEBsrePmYxL8--14" vertex="1">
          <mxGeometry width="30" height="30" as="geometry">
            <mxRectangle width="30" height="30" as="alternateBounds" />
          </mxGeometry>
        </mxCell>
        <mxCell id="U60I73bSEBsrePmYxL8--16" value="fk_id_atores: integer NOT NULL" style="shape=partialRectangle;overflow=hidden;connectable=0;fillColor=#B9E0A5;top=0;left=0;bottom=0;right=0;align=left;spacingLeft=6;" parent="U60I73bSEBsrePmYxL8--14" vertex="1">
          <mxGeometry x="30" width="290" height="30" as="geometry">
            <mxRectangle width="290" height="30" as="alternateBounds" />
          </mxGeometry>
        </mxCell>
        <mxCell id="U60I73bSEBsrePmYxL8--17" value="atores" style="shape=table;startSize=30;container=1;collapsible=1;childLayout=tableLayout;fixedRows=1;rowLines=0;fontStyle=1;align=center;resizeLast=1;fillColor=#B9E0A5;" parent="1" vertex="1">
          <mxGeometry x="-1400" y="280" width="320" height="90" as="geometry" />
        </mxCell>
        <mxCell id="U60I73bSEBsrePmYxL8--18" value="" style="shape=partialRectangle;collapsible=0;dropTarget=0;pointerEvents=0;fillColor=#B9E0A5;points=[[0,0.5],[1,0.5]];portConstraint=eastwest;top=0;left=0;right=0;bottom=1;" parent="U60I73bSEBsrePmYxL8--17" vertex="1">
          <mxGeometry y="30" width="320" height="30" as="geometry" />
        </mxCell>
        <mxCell id="U60I73bSEBsrePmYxL8--19" value="PK" style="shape=partialRectangle;overflow=hidden;connectable=0;fillColor=#B9E0A5;top=0;left=0;bottom=0;right=0;fontStyle=1;" parent="U60I73bSEBsrePmYxL8--18" vertex="1">
          <mxGeometry width="30" height="30" as="geometry">
            <mxRectangle width="30" height="30" as="alternateBounds" />
          </mxGeometry>
        </mxCell>
        <mxCell id="U60I73bSEBsrePmYxL8--20" value="id_atores: integer SERIAL NOT NULL" style="shape=partialRectangle;overflow=hidden;connectable=0;fillColor=#B9E0A5;top=0;left=0;bottom=0;right=0;align=left;spacingLeft=6;fontStyle=5;" parent="U60I73bSEBsrePmYxL8--18" vertex="1">
          <mxGeometry x="30" width="290" height="30" as="geometry">
            <mxRectangle width="290" height="30" as="alternateBounds" />
          </mxGeometry>
        </mxCell>
        <mxCell id="U60I73bSEBsrePmYxL8--21" value="" style="shape=partialRectangle;collapsible=0;dropTarget=0;pointerEvents=0;fillColor=#B9E0A5;points=[[0,0.5],[1,0.5]];portConstraint=eastwest;top=0;left=0;right=0;bottom=0;" parent="U60I73bSEBsrePmYxL8--17" vertex="1">
          <mxGeometry y="60" width="320" height="30" as="geometry" />
        </mxCell>
        <mxCell id="U60I73bSEBsrePmYxL8--22" value="" style="shape=partialRectangle;overflow=hidden;connectable=0;fillColor=#B9E0A5;top=0;left=0;bottom=0;right=0;" parent="U60I73bSEBsrePmYxL8--21" vertex="1">
          <mxGeometry width="30" height="30" as="geometry">
            <mxRectangle width="30" height="30" as="alternateBounds" />
          </mxGeometry>
        </mxCell>
        <mxCell id="U60I73bSEBsrePmYxL8--23" value="nome: varchar(255) NOT NULL" style="shape=partialRectangle;overflow=hidden;connectable=0;fillColor=#B9E0A5;top=0;left=0;bottom=0;right=0;align=left;spacingLeft=6;" parent="U60I73bSEBsrePmYxL8--21" vertex="1">
          <mxGeometry x="30" width="290" height="30" as="geometry">
            <mxRectangle width="290" height="30" as="alternateBounds" />
          </mxGeometry>
        </mxCell>
        <mxCell id="U60I73bSEBsrePmYxL8--24" style="edgeStyle=orthogonalEdgeStyle;rounded=0;orthogonalLoop=1;jettySize=auto;html=1;entryX=0;entryY=0.5;entryDx=0;entryDy=0;" parent="1" source="O3_KmsKs-KlMIZ6la9Rg-63" target="O3_KmsKs-KlMIZ6la9Rg-2" edge="1">
          <mxGeometry relative="1" as="geometry">
            <Array as="points">
              <mxPoint x="-1070" y="245" />
              <mxPoint x="-1070" y="525" />
            </Array>
          </mxGeometry>
        </mxCell>
        <mxCell id="U60I73bSEBsrePmYxL8--26" style="edgeStyle=orthogonalEdgeStyle;rounded=0;orthogonalLoop=1;jettySize=auto;html=1;entryX=0;entryY=0.5;entryDx=0;entryDy=0;" parent="1" source="U60I73bSEBsrePmYxL8--8" target="O3_KmsKs-KlMIZ6la9Rg-2" edge="1">
          <mxGeometry relative="1" as="geometry" />
        </mxCell>
        <mxCell id="U60I73bSEBsrePmYxL8--27" style="edgeStyle=orthogonalEdgeStyle;rounded=0;orthogonalLoop=1;jettySize=auto;html=1;entryX=0;entryY=0.5;entryDx=0;entryDy=0;" parent="1" source="U60I73bSEBsrePmYxL8--5" target="C-vyLk0tnHw3VtMMgP7b-14" edge="1">
          <mxGeometry relative="1" as="geometry">
            <Array as="points">
              <mxPoint x="-710" y="355" />
              <mxPoint x="-710" y="525" />
            </Array>
          </mxGeometry>
        </mxCell>
        <mxCell id="U60I73bSEBsrePmYxL8--28" style="edgeStyle=orthogonalEdgeStyle;rounded=0;orthogonalLoop=1;jettySize=auto;html=1;entryX=0;entryY=0.5;entryDx=0;entryDy=0;" parent="1" source="U60I73bSEBsrePmYxL8--11" target="O3_KmsKs-KlMIZ6la9Rg-28" edge="1">
          <mxGeometry relative="1" as="geometry">
            <Array as="points">
              <mxPoint x="-1380" y="415" />
              <mxPoint x="-1380" y="525" />
            </Array>
          </mxGeometry>
        </mxCell>
        <mxCell id="U60I73bSEBsrePmYxL8--29" style="edgeStyle=orthogonalEdgeStyle;rounded=0;orthogonalLoop=1;jettySize=auto;html=1;entryX=0;entryY=0.5;entryDx=0;entryDy=0;" parent="1" source="U60I73bSEBsrePmYxL8--14" target="U60I73bSEBsrePmYxL8--18" edge="1">
          <mxGeometry relative="1" as="geometry" />
        </mxCell>
      </root>
    </mxGraphModel>
  </diagram>
</mxfile>
